<svg width="1920" height="1075" viewBox="0 0 1920 1075" fill="none" xmlns="http://www.w3.org/2000/svg">
<g opacity="0.1">
<path d="M-262.989 902.931C-342.981 919.347 -371.525 979.882 -375.798 1008.1H-404C-383.489 895.236 -211.713 854.196 -121.979 820.85C-32.2447 787.505 -57.883 620.779 1.08511 592.563C60.0532 564.348 131.84 574.608 206.192 538.698C280.543 502.787 344.638 405.317 470.266 441.227C595.894 477.137 575.597 574.608 621.532 646.429C667.467 718.249 834.33 832.907 921.5 854.196C1008.67 875.484 1007.57 782.375 942.011 743.9C876.448 705.424 854.84 646.429 857.404 592.563C859.968 538.698 959.958 472.007 993.287 405.317C1026.62 338.626 959.958 297.586 980.468 212.94C1000.98 128.294 1098.4 135.989 1175.32 135.989C1252.23 135.989 1293.26 2.60795 1416.32 0.0429244C1539.38 -2.5221 1559.89 110.339 1588.1 212.94C1616.3 315.541 1765 271.935 1782.95 374.536C1800.89 477.137 1826.53 513.047 1949.6 456.617C2072.66 400.187 2090.61 513.047 2111.12 574.608C2127.53 623.857 2208.54 581.448 2247 554.088V574.608C2217.09 598.548 2148.04 646.429 2111.12 646.429C2064.97 646.429 2093.17 472.007 2021.38 472.007C1949.6 472.007 1859.86 548.958 1800.89 538.698C1741.93 528.438 1747.05 402.752 1731.67 361.711C1716.29 320.671 1616.3 297.586 1559.89 246.285C1503.49 194.985 1562.46 128.294 1495.8 69.2985C1429.14 10.3029 1339.4 48.7783 1267.62 110.339C1195.83 171.899 1129.17 166.769 1098.4 166.769C1067.64 166.769 1003.54 192.42 1026.62 271.935C1049.69 351.451 1039.44 418.142 959.958 513.047C880.479 607.953 906.117 682.339 959.958 725.944C1013.8 769.55 1054.82 851.63 980.468 882.411C906.117 913.191 862.532 836.24 749.724 782.375L748.746 781.908C636.634 728.376 588.21 705.254 590.766 646.429C593.33 587.433 554.872 500.222 444.628 472.007C334.383 443.792 254.904 569.478 131.84 592.563C8.77661 615.648 -6.60635 631.039 -37.3723 743.9C-68.1383 856.761 -163 882.411 -262.989 902.931Z" fill="black"/>
<path d="M-187.356 945.254C-267.348 958.592 -290.764 992.707 -292.473 1008.1H-333.495C-307.856 950.384 -207.867 918.321 -121.979 893.953C-36.0904 869.586 -21.9893 758.007 11.3405 695.164C44.6702 632.321 131.84 619.496 188.245 623.344C244.649 627.191 292.08 551.523 381.814 513.047C471.548 474.572 553.59 616.931 554.872 674.644C556.154 732.357 590.766 768.267 661.271 782.375C731.777 796.482 813.819 882.411 903.553 918.321C993.287 954.232 1059.95 854.196 1059.95 809.308C1059.95 764.42 959.958 713.119 942.011 634.886C924.064 556.653 1033.85 513.047 1059.95 456.617C1086.05 400.187 1062.51 383.514 1059.95 292.456C1057.38 201.397 1127.89 189.855 1215.06 177.029C1302.23 164.204 1281.72 69.2985 1398.37 79.5586C1515.03 89.8188 1468.88 212.94 1527.85 271.935C1586.81 330.931 1641.94 321.953 1689.37 374.536C1736.8 427.119 1689.37 551.523 1768.85 574.608C1848.32 597.693 1949.6 489.835 2021.38 502.787C2093.17 515.74 2038.05 616.931 2098.3 674.644C2146.5 720.814 2217.52 655.406 2247 616.931V646.429C2236.32 665.666 2202.65 708.502 2153.42 725.944C2091.89 747.747 2045.74 699.012 2038.05 616.931C2030.36 534.85 1964.98 522.025 1913.7 551.523C1862.43 581.021 1749.62 634.886 1689.37 574.608C1629.12 514.33 1698.34 416.859 1654.76 374.536C1611.17 332.213 1522.72 332.213 1495.8 292.456C1468.88 252.698 1456.06 124.447 1398.37 110.339C1340.69 96.2312 1267.62 175.747 1225.31 189.855C1183.01 203.962 1086.87 232.177 1098.4 332.213C1109.94 432.249 1076.61 472.007 1044.56 502.787C1012.52 533.568 959.958 579.738 980.468 646.429C1000.98 713.119 1085.59 768.267 1076.61 854.196C1067.64 940.124 942.011 945.254 857.404 918.321C772.798 891.388 759.979 842.653 644.606 820.85C529.234 799.048 539.489 760.572 543.335 679.774C547.181 598.976 470.266 551.523 381.814 551.523C293.362 551.523 279.261 673.362 197.218 659.254C115.176 645.146 1.08511 692.599 -7.88828 782.375C-16.8617 872.151 -87.367 928.581 -187.356 945.254Z" fill="black"/>
<path d="M-24.5532 934.994C-53.2681 977.06 -145.053 1001.26 -187.356 1008.1H-238.633C-189.92 990.142 -83.5213 950.384 -47.6277 934.994C-2.76062 915.756 36.9787 725.944 79.2819 705.424C121.585 684.904 188.245 728.28 234.394 679.774C280.543 631.268 415.144 553.836 470.266 602.823C525.388 651.81 474.064 725.944 513.851 782.375C553.638 838.805 609.995 845.218 672.809 854.196C735.622 863.173 879.197 945.254 1011.23 963.209C1143.27 981.164 1135.36 809.308 1059.95 725.944C984.532 642.581 1026.62 564.348 1059.95 538.698C1093.28 513.048 1140.71 441.227 1140.71 341.191C1140.71 241.155 1197.11 227.047 1236.85 212.94C1276.59 198.832 1316.33 110.339 1386.84 135.989C1457.34 161.639 1423.22 260.393 1463.75 306.563C1504.28 352.734 1627.84 355.506 1627.84 456.617C1627.84 557.728 1663.73 634.886 1753.46 634.886C1843.2 634.886 1934.21 542.239 1979.08 574.608C2023.95 606.978 1985.24 693.882 2055.99 752.877C2112.6 800.074 2206.92 733.212 2247 693.882V709.272C2235.04 725.517 2201.62 762.881 2163.68 782.375C2116.24 806.743 2006 809.308 1993.18 743.9C1980.36 678.492 1984.21 616.931 1934.21 602.823C1884.22 588.716 1689.37 725.944 1627.84 646.429C1566.3 566.913 1598.35 472.007 1588.1 420.707C1577.84 369.406 1512.46 374.536 1463.75 332.213C1415.04 289.89 1427.86 212.94 1375.3 189.855C1322.74 166.769 1276.59 212.94 1197.11 246.285C1117.63 279.63 1185.57 387.361 1177.88 420.707C1170.19 454.052 1086.87 513.047 1059.95 592.563C1033.03 672.079 1098.4 725.944 1140.71 820.85C1183.01 915.756 1098.4 996.554 1011.23 1010.66C924.064 1024.77 770.234 918.321 698.447 893.953C626.66 869.586 572.819 902.931 513.851 854.196C454.883 805.46 493.34 674.644 444.628 634.886C395.915 595.128 326.692 646.429 263.878 705.424C201.064 764.42 156.197 695.164 90.8192 725.944C25.4415 756.725 11.3405 882.411 -24.5532 934.994Z" fill="black"/>
<path d="M61.3351 893.953C63.3862 952.436 22.0231 994.417 1.08511 1008.1H-83.5213C20.3138 1005.53 48.516 837.523 61.3351 809.308C74.1543 781.092 113.894 743.9 188.245 759.29C262.596 774.68 294.644 709.272 342.075 674.644C389.505 640.016 444.628 659.254 444.628 725.944C444.628 792.635 444.628 882.411 529.234 904.214C613.84 926.016 683.064 889.5 749.724 934.994C816.383 980.488 959.958 1059.4 1059.95 1033.75C1159.94 1008.1 1206.36 854.196 1165.06 795.2C1123.77 736.205 1059.95 592.563 1150.96 513.047C1241.98 433.532 1197.11 361.711 1209.93 306.563C1222.75 251.415 1286.85 225.765 1348.38 227.047C1409.91 228.33 1398.37 341.191 1463.75 374.536C1529.13 407.882 1559.89 405.317 1559.89 524.59C1559.89 643.864 1616.3 693.882 1689.37 709.272C1762.44 724.662 1782.95 650.017 1888.06 646.429C1993.18 642.841 1918.42 795.2 2021.38 843.936C2103.75 882.924 2206.11 806.315 2247 763.137V795.2C2197.43 833.248 2077.27 903.957 1993.18 882.411C1888.06 855.478 1922.68 693.882 1888.06 679.774C1853.45 665.666 1707.31 752.877 1627.84 734.922C1548.36 716.967 1518.87 616.931 1527.85 502.787C1536.82 388.644 1463.75 405.317 1416.32 387.361C1368.89 369.406 1398.37 280.913 1335.56 260.393C1272.74 239.873 1236.85 316.823 1236.85 374.536C1236.85 432.249 1225.31 456.617 1177.88 513.047C1130.45 569.478 1112.51 659.254 1150.96 725.944C1189.42 792.635 1243.26 909.344 1197.11 983.729C1150.96 1058.11 1044.56 1086.33 959.958 1070.94C875.351 1055.55 749.724 963.209 711.266 945.254C672.809 927.299 590.766 945.254 503.596 945.254C416.426 945.254 420.271 854.196 427.963 782.375C435.654 710.554 362.585 659.254 321.564 725.944C280.543 792.635 247.213 809.308 179.271 782.375C111.33 755.442 58.7713 820.85 61.3351 893.953Z" fill="black"/>
</g>
</svg>
