<?xml version="1.0" encoding="UTF-8"?>
<!DOCTYPE svg PUBLIC "-//W3C//DTD SVG 1.1//EN" "http://www.w3.org/Graphics/SVG/1.1/DTD/svg11.dtd">
<!-- Creator: CorelDRAW -->
<svg xmlns="http://www.w3.org/2000/svg" xml:space="preserve" width="2743px" height="1140px" version="1.1" style="shape-rendering:geometricPrecision; text-rendering:geometricPrecision; image-rendering:optimizeQuality; fill-rule:evenodd; clip-rule:evenodd"
viewBox="0 0 2743 1140.65"
 xmlns:xlink="http://www.w3.org/1999/xlink"
 xmlns:xodm="http://www.corel.com/coreldraw/odm/2003">
 <defs>
  <style type="text/css">
   <![CDATA[
    .fil0 {fill:#ED1C24}
    .fil1 {fill:#000000}
   ]]>
  </style>
 </defs>
 <g id="Layer_x0020_1">
  <metadata id="CorelCorpID_0Corel-Layer"/>
  <g id="_2147443186656">
   <path class="fil0" d="M819.57 12.39c-12.53,13.25 -50.63,20.83 -68,23.86 -27.49,4.79 -55.23,8.08 -83.1,9.24 -63.55,2.62 -157.36,-14.75 -220.53,-21.92 -159.51,-18.11 -266.97,93.43 -289.11,166.79 0,0 44.31,-46.26 148.11,-38.59 58.2,4.31 120.09,18.76 178.68,18.08 56.5,-0.66 106.92,-10.44 158.71,-32.96 66.16,-28.77 125.74,-72.16 175.24,-124.5z"/>
   <path class="fil0" d="M1110.72 288.83c-126.42,-96.31 -334.25,-67.12 -444.52,56.49 -102,114.34 -136.4,316.86 5.9,451.52 112.37,106.35 266.06,80.33 331.67,50.45 98.67,-44.96 145.72,-111.05 145.72,-111.05 -80.17,73.46 -241.32,89.27 -337.82,-13.22 -51.76,-54.98 -75.94,-145.6 -50.07,-237.84 34.8,-132.27 144.03,-196.38 243.74,-206.46 65.01,-6.57 105.38,10.11 105.38,10.11z"/>
   <path class="fil0" d="M1214.75 454.64c38.71,81.75 32.82,193.8 -1.42,303.48 -0.98,-35.16 -26.22,-67.47 -44.41,-83.21 -31.84,-27.56 -53.89,-35.9 -87.25,-68.58 -52.52,-51.45 -37.16,-99.86 -26.18,-163.39 6.98,-40.44 1.17,-94.85 -41.93,-115.27 101.41,0 167.77,56.39 201.19,126.97z"/>
   <path class="fil0" d="M304.89 1.56c-119.87,-10.24 -282.11,28.69 -302.91,155.63 -14.19,86.6 49.79,147.32 133.54,150.52 0,0 -60.73,-83.93 -5.63,-177.59 63.21,-107.43 175.02,-128.57 175,-128.56z"/>
   <path class="fil0" d="M580.98 297.11c-45.23,53.11 -82,129.2 -92.61,196.38 -7.14,45.2 -16.27,100.1 -25.65,145.27 -12.64,60.85 -43.93,128.61 -115.73,180.54 -57.1,41.3 -167.43,73.25 -167.43,73.25 0,0 86.25,-95.44 116.49,-226.25 31.56,-136.55 20.01,-268.76 156.15,-385.76 125.77,-108.08 298.37,-90.93 298.15,-90.88 -73.88,20 -131.53,63.01 -169.37,107.45z"/>
   <path class="fil0" d="M1044.72 931.17c-64.04,27.7 -147.55,40.58 -214.9,31.05 -45.31,-6.41 -100.48,-13.76 -146.41,-18.01 -61.89,-5.74 -135.84,4.34 -206.52,57.79 -56.21,42.5 -119.06,138.65 -119.06,138.65 0,0 116.51,-54.53 250.44,-45.14 139.81,9.8 262.84,59.57 414.58,-36.35 140.17,-88.61 174.31,-258.67 174.19,-258.48 -40.74,64.79 -98.76,107.32 -152.32,130.49z"/>
   <path class="fil1" d="M1453.85 191.28c1.03,0.15 1.98,0.41 2.82,0.79 0.84,0.39 1.65,0.93 2.4,1.62 0.77,0.7 1.65,1.63 2.62,2.8l72.45 91.03c-0.26,-2.91 -0.48,-5.73 -0.61,-8.48 -0.14,-2.74 -0.21,-5.32 -0.21,-7.76l0 -80.19 31.21 0 0 151.55 -18.43 0c-2.72,0 -5.03,-0.4 -6.91,-1.24 -1.89,-0.83 -3.69,-2.36 -5.45,-4.58l-71.93 -90.29c0.18,2.65 0.36,5.23 0.53,7.76 0.11,2.53 0.19,4.89 0.19,7.11l0.01 81.24 -31.21 0 0 -151.55 18.63 0c1.54,0 2.83,0.07 3.89,0.19z"/>
   <path class="fil1" d="M1652.46 314.88c4.75,0 8.99,-0.79 12.71,-2.34 3.73,-1.57 6.89,-3.8 9.49,-6.71 2.59,-2.91 4.55,-6.47 5.91,-10.65 1.37,-4.2 2.05,-8.97 2.05,-14.32l0.01 -89.77 35.37 0 0 89.77c0,9.29 -1.52,17.83 -4.56,25.59 -3.01,7.76 -7.37,14.47 -13.02,20.08 -5.67,5.61 -12.54,9.98 -20.64,13.11 -8.11,3.12 -17.21,4.68 -27.32,4.68 -10.2,0 -19.35,-1.56 -27.45,-4.68 -8.09,-3.13 -14.97,-7.5 -20.62,-13.11 -5.65,-5.61 -10,-12.32 -12.99,-20.08 -3,-7.76 -4.49,-16.3 -4.49,-25.59l0 -89.77 35.39 0 0 89.68c0,5.32 0.67,10.09 2.04,14.27 1.36,4.2 3.33,7.78 5.91,10.74 2.59,2.94 5.75,5.19 9.49,6.76 3.72,1.55 7.96,2.34 12.72,2.34z"/>
   <path class="fil1" d="M1830.71 221.87c-1.05,1.67 -2.16,2.91 -3.29,3.75 -1.17,0.85 -2.64,1.24 -4.46,1.24 -1.61,0 -3.35,-0.51 -5.19,-1.49 -1.85,-1.02 -3.93,-2.14 -6.28,-3.38 -2.33,-1.25 -5.02,-2.39 -8.02,-3.39 -2.99,-1.01 -6.4,-1.51 -10.25,-1.51 -6.63,0 -11.57,1.41 -14.82,4.23 -3.24,2.79 -4.87,6.61 -4.87,11.36 0,3.06 0.97,5.59 2.93,7.62 1.95,2 4.51,3.74 7.7,5.2 3.16,1.46 6.81,2.79 10.89,4.01 4.08,1.2 8.26,2.56 12.52,4.03 4.26,1.51 8.42,3.26 12.5,5.26 4.09,2 7.74,4.58 10.89,7.71 3.18,3.13 5.75,6.9 7.71,11.39 1.94,4.46 2.92,9.86 2.92,16.16 0,7 -1.23,13.56 -3.65,19.67 -2.45,6.09 -6,11.42 -10.64,15.98 -4.63,4.53 -10.37,8.11 -17.17,10.71 -6.81,2.58 -14.55,3.9 -23.19,3.9 -4.76,0 -9.58,-0.48 -14.5,-1.46 -4.94,-0.98 -9.69,-2.34 -14.29,-4.11 -4.62,-1.76 -8.95,-3.86 -12.99,-6.3 -4.05,-2.41 -7.57,-5.13 -10.59,-8.1l10.48 -16.44c0.77,-1.24 1.85,-2.25 3.24,-3.03 1.4,-0.74 2.91,-1.13 4.51,-1.13 2.09,0 4.19,0.65 6.33,1.96 2.13,1.34 4.54,2.8 7.22,4.37 2.7,1.6 5.78,3.06 9.27,4.37 3.5,1.34 7.62,1.98 12.35,1.98 6.43,0 11.42,-1.4 14.98,-4.2 3.56,-2.82 5.35,-7.28 5.35,-13.37 0,-3.53 -0.98,-6.42 -2.92,-8.64 -1.98,-2.22 -4.54,-4.06 -7.7,-5.52 -3.19,-1.46 -6.81,-2.72 -10.85,-3.84 -4.04,-1.12 -8.2,-2.34 -12.46,-3.7 -4.26,-1.36 -8.43,-3.01 -12.48,-4.99 -4.05,-1.98 -7.65,-4.59 -10.82,-7.79 -3.18,-3.24 -5.73,-7.25 -7.69,-12.07 -1.95,-4.82 -2.93,-10.77 -2.93,-17.84 0,-5.71 1.14,-11.24 3.45,-16.64 2.31,-5.42 5.68,-10.24 10.15,-14.46 4.47,-4.23 9.95,-7.62 16.45,-10.15 6.48,-2.53 13.93,-3.8 22.29,-3.8 4.68,0 9.24,0.36 13.68,1.08 4.43,0.74 8.65,1.84 12.6,3.24 4,1.43 7.7,3.11 11.18,5.11 3.44,1.96 6.53,4.2 9.26,6.69l-8.8 16.33z"/>
   <path class="fil1" d="M1903.95 284.7l41.66 0 -14.01 -41.49c-0.9,-2.63 -1.97,-5.75 -3.21,-9.31 -1.21,-3.58 -2.41,-7.43 -3.6,-11.6 -1.13,4.22 -2.29,8.14 -3.47,11.74 -1.19,3.61 -2.3,6.74 -3.35,9.36l-14.02 41.3zm98 57.94l-27.42 0c-3.07,0 -5.61,-0.69 -7.6,-2.12 -2,-1.43 -3.36,-3.25 -4.15,-5.47l-8.97 -26.43 -58.02 0 -9.01 26.43c-0.71,1.96 -2.07,3.7 -4.1,5.25 -2.01,1.58 -4.48,2.35 -7.4,2.35l-27.68 -0.01 59.06 -151.55 36.25 0 59.04 151.55z"/>
   <path class="fil1" d="M2043.19 191.28c1.04,0.15 2,0.41 2.83,0.79 0.83,0.39 1.65,0.93 2.41,1.62 0.76,0.7 1.64,1.63 2.61,2.8l72.47 91.03c-0.29,-2.91 -0.5,-5.73 -0.63,-8.48 -0.14,-2.74 -0.2,-5.32 -0.2,-7.76l0 -80.19 31.21 0 0 151.55 -18.45 0c-2.71,0 -5.01,-0.4 -6.89,-1.24 -1.9,-0.83 -3.7,-2.36 -5.45,-4.58l-71.96 -90.29c0.21,2.65 0.38,5.23 0.53,7.76 0.15,2.53 0.21,4.89 0.21,7.11l0 81.24 -31.21 0 0 -151.55 18.64 0c1.55,0 2.83,0.07 3.88,0.19z"/>
   <polygon class="fil1" points="2293.48,191.09 2293.48,218.98 2250.55,218.98 2250.55,342.64 2215.15,342.64 2215.15,218.98 2172.22,218.98 2172.22,191.09 "/>
   <path class="fil1" d="M2333 284.7l41.7 0 -14.05 -41.49c-0.89,-2.63 -1.96,-5.75 -3.18,-9.31 -1.23,-3.58 -2.45,-7.43 -3.61,-11.6 -1.11,4.22 -2.28,8.14 -3.45,11.74 -1.19,3.61 -2.31,6.74 -3.37,9.36l-14.04 41.3zm98.02 57.94l-27.43 0c-3.08,0 -5.59,-0.69 -7.59,-2.12 -2.01,-1.43 -3.37,-3.25 -4.13,-5.47l-9.02 -26.43 -57.99 0 -9.03 26.43c-0.69,1.96 -2.04,3.7 -4.07,5.25 -2.02,1.58 -4.5,2.35 -7.43,2.35l-27.66 -0.01 59.08 -151.55 36.22 0 59.05 151.55z"/>
   <path class="fil1" d="M2486.53 262.33l14.24 0c4.81,0 8.9,-0.59 12.31,-1.81 3.36,-1.22 6.14,-2.89 8.29,-5.04 2.18,-2.15 3.75,-4.65 4.74,-7.54 0.99,-2.87 1.47,-6 1.47,-9.31 0,-6.66 -2.2,-11.84 -6.54,-15.59 -4.37,-3.75 -11.12,-5.61 -20.27,-5.61l-14.24 0 0 44.9zm0 24.24l0 56.07 -35.41 0 0 -151.55 49.65 0c11.03,0 20.42,1.12 28.22,3.37 7.78,2.27 14.14,5.39 19.05,9.43 4.91,4.01 8.51,8.76 10.74,14.23 2.23,5.49 3.35,11.46 3.35,17.9 0,4.92 -0.67,9.58 -1.99,13.95 -1.32,4.37 -3.29,8.4 -5.93,12.13 -2.6,3.7 -5.82,7.01 -9.62,9.9 -3.8,2.91 -8.18,5.33 -13.15,7.19 2.39,1.19 4.6,2.65 6.65,4.37 2.07,1.74 3.85,3.86 5.4,6.34l32.46 52.74 -32.04 0c-5.93,0 -10.18,-2.22 -12.77,-6.66l-25.36 -44c-1.09,-1.93 -2.41,-3.31 -3.91,-4.15 -1.51,-0.84 -3.62,-1.26 -6.33,-1.26l-9.01 0z"/>
   <path class="fil1" d="M2645 284.7l41.68 0 -14.03 -41.49c-0.9,-2.63 -1.97,-5.75 -3.19,-9.31 -1.21,-3.58 -2.42,-7.43 -3.62,-11.6 -1.11,4.22 -2.28,8.14 -3.46,11.74 -1.17,3.61 -2.3,6.74 -3.35,9.36l-14.03 41.3zm98 57.94l-27.42 0c-3.06,0 -5.6,-0.69 -7.6,-2.12 -1.97,-1.43 -3.37,-3.25 -4.13,-5.47l-9.01 -26.43 -58.02 0 -8.98 26.43c-0.71,1.96 -2.06,3.7 -4.11,5.25 -2.02,1.58 -4.5,2.35 -7.42,2.35l-27.65 -0.01 59.08 -151.55 36.21 0 59.05 151.55z"/>
   <path class="fil1" d="M1466.71 482.71l0 37.77 24.93 0c4.69,0 8.51,-0.6 11.47,-1.77 2.97,-1.17 5.28,-2.69 6.96,-4.58 1.68,-1.86 2.84,-3.99 3.46,-6.35 0.63,-2.34 0.95,-4.75 0.95,-7.17 0,-2.76 -0.37,-5.27 -1.11,-7.49 -0.72,-2.22 -2,-4.08 -3.77,-5.61 -1.78,-1.53 -4.13,-2.72 -7.06,-3.53 -2.92,-0.84 -6.64,-1.27 -11.11,-1.27l-24.72 0zm0 -23.49l18.44 0c3.92,0 7.45,-0.29 10.57,-0.84 3.15,-0.57 5.84,-1.52 8.02,-2.91 2.18,-1.41 3.88,-3.29 5.02,-5.72 1.17,-2.44 1.74,-5.47 1.74,-9.15 0,-3.61 -0.46,-6.61 -1.38,-9 -0.91,-2.39 -2.3,-4.32 -4.18,-5.78 -1.87,-1.45 -4.28,-2.48 -7.17,-3.12 -2.89,-0.63 -6.34,-0.94 -10.32,-0.94l-20.74 0 0 37.46zm-35.38 87.78l0 -151.55 56.12 0c10.56,0 19.52,0.96 26.91,2.92 7.4,1.93 13.45,4.68 18.12,8.21 4.68,3.53 8.09,7.83 10.22,12.89 2.13,5.06 3.2,10.72 3.2,16.97 0,3.39 -0.5,6.67 -1.48,9.82 -0.97,3.15 -2.5,6.13 -4.61,8.9 -2.1,2.77 -4.77,5.28 -8.06,7.54 -3.28,2.25 -7.21,4.23 -11.82,5.88 10.03,2.41 17.47,6.35 22.3,11.79 4.82,5.47 7.21,12.44 7.21,20.99 0,6.42 -1.24,12.44 -3.76,17.97 -2.51,5.54 -6.2,10.39 -11.06,14.52 -4.84,4.13 -10.83,7.35 -17.95,9.69 -7.12,2.29 -15.26,3.46 -24.39,3.46l-60.95 0z"/>
   <path class="fil1" d="M1614.63 489.06l41.67 0 -14.03 -41.49c-0.89,-2.65 -1.97,-5.76 -3.2,-9.31 -1.21,-3.58 -2.4,-7.43 -3.6,-11.61 -1.12,4.23 -2.29,8.15 -3.48,11.75 -1.16,3.61 -2.29,6.74 -3.32,9.36l-14.04 41.3zm98 57.94l-27.41 0c-3.09,0 -5.6,-0.69 -7.61,-2.12 -2,-1.43 -3.38,-3.25 -4.14,-5.47l-8.99 -26.43 -58.02 0 -9 26.43c-0.7,1.96 -2.07,3.68 -4.09,5.28 -2.03,1.55 -4.51,2.31 -7.42,2.31l-27.66 0 59.06 -151.55 36.24 0 59.04 151.55z"/>
   <path class="fil1" d="M1767.35 466.69l14.25 0c4.8,0 8.92,-0.59 12.3,-1.81 3.39,-1.22 6.18,-2.89 8.32,-5.04 2.18,-2.15 3.73,-4.65 4.71,-7.54 0.99,-2.89 1.47,-6 1.47,-9.31 0,-6.66 -2.19,-11.87 -6.55,-15.62 -4.36,-3.72 -11.11,-5.61 -20.25,-5.61l-14.25 0 0 44.93zm0 24.26l0 56.05 -35.39 0 0 -151.55 49.64 0c11.02,0 20.42,1.12 28.22,3.37 7.8,2.27 14.13,5.39 19.04,9.43 4.92,4.01 8.51,8.76 10.76,14.23 2.22,5.49 3.33,11.46 3.33,17.9 0,4.92 -0.66,9.58 -1.98,13.95 -1.34,4.37 -3.3,8.4 -5.91,12.13 -2.63,3.7 -5.83,7.01 -9.64,9.9 -3.8,2.91 -8.19,5.32 -13.14,7.18 2.36,1.2 4.59,2.66 6.64,4.38 2.06,1.74 3.86,3.84 5.4,6.34l32.45 52.74 -32.03 0c-5.94,0 -10.2,-2.22 -12.78,-6.66l-25.35 -44c-1.1,-1.93 -2.41,-3.31 -3.92,-4.15 -1.5,-0.84 -3.61,-1.24 -6.33,-1.24l-9.01 0z"/>
   <path class="fil1" d="M1930.67 519.24c4.75,0 8.99,-0.79 12.72,-2.34 3.74,-1.58 6.9,-3.8 9.49,-6.71 2.57,-2.91 4.54,-6.47 5.91,-10.67 1.36,-4.2 2.03,-8.95 2.03,-14.3l0 -89.77 35.39 0 0 89.77c0,9.31 -1.51,17.81 -4.55,25.59 -3.03,7.76 -7.4,14.45 -13.04,20.08 -5.65,5.61 -12.52,9.98 -20.62,13.11 -8.1,3.1 -17.21,4.68 -27.33,4.68 -10.2,0 -19.35,-1.58 -27.45,-4.68 -8.09,-3.13 -14.94,-7.5 -20.62,-13.11 -5.66,-5.63 -9.97,-12.32 -12.97,-20.08 -3.02,-7.78 -4.51,-16.28 -4.51,-25.59l0 -89.77 35.39 0 0 89.67c0,5.33 0.68,10.1 2.03,14.3 1.37,4.18 3.34,7.76 5.93,10.72 2.58,2.94 5.74,5.18 9.48,6.76 3.74,1.55 7.96,2.34 12.72,2.34z"/>
   <polygon class="fil1" points="1466.93,796.45 1431.33,796.45 1431.33,644.89 1466.93,644.89 "/>
   <path class="fil1" d="M1515.45 645.09c1.06,0.14 2,0.4 2.82,0.78 0.85,0.39 1.65,0.91 2.4,1.6 0.78,0.7 1.66,1.65 2.63,2.82l72.48 91.03c-0.29,-2.92 -0.51,-5.75 -0.64,-8.5 -0.13,-2.72 -0.22,-5.3 -0.22,-7.73l0 -80.22 31.22 0 0 151.58 -18.44 0c-2.7,0 -5.02,-0.42 -6.9,-1.24 -1.89,-0.87 -3.7,-2.37 -5.44,-4.59l-71.96 -90.29c0.21,2.62 0.38,5.2 0.53,7.76 0.15,2.53 0.19,4.89 0.19,7.11l0 81.25 -31.18 0 0 -151.58 18.63 0c1.53,0 2.84,0.07 3.88,0.22z"/>
   <path class="fil1" d="M1754.39 720.6c0,-7.48 -0.96,-14.23 -2.92,-20.27 -1.95,-6.04 -4.76,-11.16 -8.42,-15.35 -3.67,-4.2 -8.16,-7.41 -13.47,-9.67 -5.29,-2.27 -11.33,-3.4 -18.11,-3.4l-23.67 0 0 97.49 23.67 0c6.78,0 12.82,-1.12 18.11,-3.39 5.31,-2.25 9.8,-5.48 13.47,-9.67 3.66,-4.18 6.47,-9.31 8.42,-15.33 1.96,-6.04 2.92,-12.85 2.92,-20.41zm36.26 0c0,10.96 -1.91,21.08 -5.73,30.34 -3.79,9.24 -9.16,17.26 -16.05,24.02 -6.94,6.76 -15.25,12.03 -25,15.8 -9.73,3.79 -20.53,5.69 -32.4,5.69l-59.27 0 0 -151.58 59.27 0c11.87,0 22.67,1.91 32.4,5.73 9.75,3.82 18.06,9.1 25,15.8 6.89,6.76 12.26,14.73 16.05,23.99 3.82,9.27 5.72,19.35 5.73,30.21z"/>
   <path class="fil1" d="M1927.44 720.6c0,-7.48 -0.96,-14.23 -2.92,-20.22 -1.95,-6 -4.76,-11.08 -8.42,-15.26 -3.68,-4.15 -8.16,-7.32 -13.47,-9.54 -5.31,-2.24 -11.34,-3.32 -18.11,-3.32 -6.84,0 -12.95,1.08 -18.28,3.32 -5.35,2.21 -9.84,5.39 -13.51,9.54 -3.65,4.18 -6.47,9.26 -8.42,15.26 -1.96,5.99 -2.93,12.74 -2.93,20.22 0,7.56 0.97,14.35 2.93,20.34 1.95,6.01 4.77,11.07 8.42,15.25 3.67,4.16 8.16,7.33 13.51,9.53 5.33,2.17 11.44,3.27 18.28,3.27 6.77,0 12.8,-1.1 18.11,-3.27 5.31,-2.2 9.79,-5.37 13.47,-9.53 3.66,-4.18 6.47,-9.23 8.42,-15.25 1.96,-6 2.92,-12.78 2.92,-20.34zm36.25 0c0,10.96 -1.92,21.18 -5.71,30.6 -3.8,9.42 -9.17,17.63 -16.08,24.6 -6.91,6.97 -15.24,12.43 -24.97,16.37 -9.75,3.96 -20.55,5.93 -32.41,5.93 -11.88,0 -22.69,-1.97 -32.46,-5.93 -9.79,-3.94 -18.13,-9.4 -25.08,-16.37 -6.94,-6.97 -12.33,-15.18 -16.14,-24.6 -3.8,-9.43 -5.69,-19.64 -5.69,-30.6 0,-10.93 1.89,-21.15 5.69,-30.59 3.81,-9.4 9.2,-17.6 16.14,-24.54 6.95,-6.92 15.28,-12.39 25.08,-16.32 9.77,-3.95 20.58,-5.93 32.46,-5.93 11.86,0 22.66,2.01 32.41,5.98 9.73,3.97 18.06,9.47 24.97,16.39 6.91,6.93 12.28,15.09 16.08,24.54 3.79,9.44 5.71,19.61 5.71,30.47z"/>
   <path class="fil1" d="M2004.39 645.09c1.05,0.14 1.99,0.4 2.82,0.78 0.83,0.39 1.63,0.91 2.4,1.6 0.77,0.7 1.66,1.65 2.62,2.82l72.46 91.03c-0.26,-2.92 -0.49,-5.75 -0.61,-8.5 -0.13,-2.72 -0.22,-5.3 -0.22,-7.73l0 -80.22 31.21 0 0 151.58 -18.43 0c-2.73,0 -5.03,-0.42 -6.91,-1.24 -1.9,-0.87 -3.7,-2.37 -5.45,-4.59l-71.94 -90.29c0.19,2.62 0.37,5.2 0.52,7.76 0.14,2.53 0.2,4.89 0.2,7.11l0 81.25 -31.21 0 0 -151.58 18.64 0c1.54,0 2.84,0.07 3.9,0.22z"/>
   <polygon class="fil1" points="2239.46,644.87 2239.46,671.91 2176.84,671.91 2176.84,707.3 2224.8,707.3 2224.8,733.3 2176.84,733.3 2176.84,769.4 2239.46,769.4 2239.46,796.45 2141.23,796.45 2141.23,644.87 "/>
   <path class="fil1" d="M2351.86 675.67c-1.05,1.66 -2.16,2.91 -3.3,3.74 -1.16,0.84 -2.63,1.25 -4.46,1.25 -1.59,0 -3.32,-0.51 -5.17,-1.51 -1.85,-1 -3.95,-2.11 -6.28,-3.38 -2.35,-1.23 -5.01,-2.37 -8.01,-3.37 -3.03,-1 -6.43,-1.53 -10.27,-1.53 -6.64,0 -11.57,1.41 -14.82,4.22 -3.24,2.83 -4.88,6.62 -4.88,11.4 0,3.05 0.97,5.59 2.94,7.58 1.94,2.03 4.51,3.75 7.71,5.21 3.15,1.48 6.79,2.8 10.88,4.01 4.1,1.21 8.26,2.55 12.51,4.06 4.28,1.5 8.43,3.25 12.53,5.25 4.08,2.01 7.7,4.58 10.86,7.69 3.19,3.13 5.77,6.92 7.73,11.41 1.95,4.46 2.93,9.86 2.93,16.16 0,7.02 -1.24,13.57 -3.68,19.67 -2.44,6.09 -5.99,11.42 -10.64,15.98 -4.64,4.53 -10.37,8.09 -17.17,10.69 -6.79,2.6 -14.54,3.91 -23.19,3.91 -4.76,0 -9.58,-0.5 -14.49,-1.46 -4.92,-0.97 -9.71,-2.35 -14.29,-4.12 -4.63,-1.74 -8.95,-3.85 -13,-6.28 -4.05,-2.44 -7.57,-5.14 -10.58,-8.12l10.46 -16.43c0.78,-1.26 1.88,-2.26 3.26,-3.03 1.4,-0.73 2.9,-1.14 4.49,-1.14 2.12,0 4.22,0.67 6.37,1.98 2.11,1.31 4.52,2.77 7.2,4.37 2.71,1.6 5.79,3.06 9.27,4.37 3.5,1.32 7.6,1.98 12.36,1.98 6.44,0 11.42,-1.4 14.96,-4.2 3.59,-2.82 5.35,-7.28 5.35,-13.4 0,-3.52 -0.99,-6.39 -2.92,-8.61 -1.95,-2.22 -4.53,-4.06 -7.72,-5.52 -3.17,-1.46 -6.76,-2.75 -10.83,-3.84 -4.05,-1.1 -8.19,-2.34 -12.45,-3.7 -4.26,-1.36 -8.4,-3.01 -12.47,-5 -4.06,-1.98 -7.65,-4.58 -10.82,-7.8 -3.19,-3.22 -5.74,-7.25 -7.72,-12.05 -1.93,-4.82 -2.92,-10.77 -2.92,-17.87 0,-5.67 1.17,-11.2 3.45,-16.63 2.31,-5.39 5.7,-10.22 10.16,-14.45 4.46,-4.25 9.95,-7.61 16.44,-10.14 6.5,-2.54 13.92,-3.8 22.32,-3.8 4.66,0 9.23,0.36 13.66,1.07 4.43,0.75 8.63,1.82 12.61,3.26 3.98,1.4 7.69,3.12 11.17,5.09 3.43,1.98 6.54,4.19 9.26,6.7l-8.8 16.33z"/>
   <polygon class="fil1" points="2420.68,797.59 2385.07,797.59 2385.07,646.04 2420.68,646.04 "/>
   <path class="fil1" d="M2499.07 739.65l41.67 0 -14.01 -41.49c-0.91,-2.65 -1.98,-5.76 -3.19,-9.31 -1.24,-3.58 -2.44,-7.45 -3.62,-11.61 -1.11,4.23 -2.29,8.14 -3.45,11.75 -1.18,3.61 -2.3,6.73 -3.36,9.36l-14.04 41.3zm98.01 57.94l-27.41 0c-3.09,0 -5.61,-0.71 -7.6,-2.12 -2.02,-1.44 -3.38,-3.25 -4.14,-5.47l-9 -26.41 -58.02 0 -9.01 26.41c-0.69,1.96 -2.05,3.7 -4.1,5.25 -2.01,1.57 -4.48,2.34 -7.41,2.34l-27.64 0 59.04 -151.55 36.25 0 59.04 151.55z"/>
   <path class="fil1" d="M1513.37 939.74c1.29,2.83 2.54,5.75 3.72,8.74 1.19,-3.06 2.44,-6.03 3.77,-8.91 1.32,-2.86 2.67,-5.68 4.09,-8.38l39.15 -76.63c0.69,-1.33 1.42,-2.35 2.16,-3.09 0.72,-0.71 1.55,-1.24 2.46,-1.6 0.9,-0.35 1.94,-0.52 3.1,-0.52l4.02 0 27.01 0 0 151.46 -31.2 0 0 -87.17c0,-4.25 0.2,-8.81 0.62,-13.75l-40.41 77.92c-1.27,2.45 -2.95,4.28 -5.08,5.52 -2.12,1.24 -4.55,1.86 -7.28,1.86l-4.81 0c-2.73,0 -5.14,-0.62 -7.27,-1.86 -2.14,-1.24 -3.83,-3.07 -5.1,-5.52l-40.63 -78.01c0.28,2.43 0.49,4.85 0.64,7.23 0.12,2.39 0.22,4.58 0.22,6.61l0 87.17 -31.22 0 0 -151.46 27.02 0 4.03 0c1.15,0 2.17,0.17 3.08,0.52 0.91,0.36 1.72,0.89 2.46,1.6 0.74,0.74 1.47,1.76 2.16,3.09l39.25 76.94c1.4,2.65 2.75,5.4 4.04,8.24z"/>
   <path class="fil1" d="M1681.36 942.86l41.69 0 -14.05 -41.49c-0.89,-2.65 -1.95,-5.76 -3.18,-9.33 -1.22,-3.56 -2.43,-7.43 -3.62,-11.59 -1.11,4.23 -2.26,8.15 -3.45,11.76 -1.19,3.6 -2.31,6.72 -3.35,9.35l-14.04 41.3zm98.02 57.95l-27.44 0c-3.07,0 -5.61,-0.73 -7.59,-2.15 -1.99,-1.41 -3.36,-3.25 -4.13,-5.45l-9 -26.42 -58.02 0 -9.01 26.42c-0.71,1.94 -2.06,3.68 -4.08,5.25 -2.03,1.56 -4.49,2.35 -7.45,2.35l-27.63 0 59.06 -151.56 36.23 0 59.06 151.56z"/>
   <path class="fil1" d="M1870.17 945.87c0,8.45 -1.09,16.17 -3.21,23.11 -2.13,6.93 -5.33,12.87 -9.63,17.84 -4.3,4.96 -9.7,8.8 -16.19,11.55 -6.49,2.73 -14.1,4.08 -22.92,4.08 -3.97,0 -7.9,-0.18 -11.78,-0.6 -3.89,-0.42 -7.91,-1.12 -12.09,-2.07l1.87 -20.51c0.15,-1.78 0.86,-3.24 2.15,-4.37 1.32,-1.12 3.09,-1.64 5.4,-1.64 1.19,0 2.64,0.16 4.4,0.54 1.73,0.41 3.83,0.58 6.28,0.58 3.42,0 6.41,-0.45 8.95,-1.41 2.54,-0.93 4.66,-2.49 6.34,-4.68 1.69,-2.19 2.95,-5.05 3.76,-8.57 0.85,-3.54 1.29,-7.91 1.29,-13.11l0 -97.38 35.38 0 0 96.64z"/>
   <path class="fil1" d="M1961.98 973.04c4.73,0 8.98,-0.79 12.72,-2.34 3.72,-1.58 6.89,-3.8 9.48,-6.73 2.58,-2.89 4.54,-6.45 5.9,-10.64 1.37,-4.21 2.05,-8.99 2.05,-14.31l0 -89.79 35.39 0 0 89.79c0,9.29 -1.52,17.81 -4.56,25.59 -3.03,7.76 -7.38,14.45 -13.03,20.08 -5.64,5.61 -12.53,9.95 -20.63,13.11 -8.1,3.1 -17.22,4.65 -27.33,4.65 -10.2,0 -19.34,-1.55 -27.44,-4.65 -8.09,-3.16 -14.96,-7.5 -20.62,-13.11 -5.66,-5.63 -9.99,-12.32 -12.98,-20.08 -3.01,-7.78 -4.52,-16.3 -4.52,-25.59l0 -89.79 35.4 0 0 89.67c0,5.35 0.69,10.12 2.03,14.31 1.37,4.19 3.34,7.78 5.93,10.71 2.58,2.96 5.74,5.2 9.48,6.78 3.74,1.55 7.96,2.34 12.73,2.34z"/>
  </g>
 </g>
</svg>
